<svg id="Layer_1" data-name="Layer 1" xmlns="http://www.w3.org/2000/svg" viewBox="0 0 92.73 49"><defs><style>.cls-1{fill:#fff;}</style></defs><title>Dog_City_logo_white</title><rect class="cls-1" x="3.95" y="36.27" width="84.18" height="8.75"/><ellipse class="cls-1" cx="86.81" cy="44.23" rx="5.92" ry="4.77"/><ellipse class="cls-1" cx="86.81" cy="37.86" rx="5.92" ry="4.77"/><ellipse class="cls-1" cx="5.92" cy="43.7" rx="5.92" ry="4.77"/><ellipse class="cls-1" cx="5.92" cy="37.33" rx="5.92" ry="4.77"/><rect class="cls-1" x="3.95" y="18.19" width="84.18" height="8.75"/><ellipse class="cls-1" cx="86.81" cy="26.14" rx="5.92" ry="4.77"/><ellipse class="cls-1" cx="86.81" cy="19.78" rx="5.92" ry="4.77"/><ellipse class="cls-1" cx="5.92" cy="25.61" rx="5.92" ry="4.77"/><ellipse class="cls-1" cx="5.92" cy="19.25" rx="5.92" ry="4.77"/><path class="cls-1" d="M29.82,11.2c.38,1.75-1.52,2.13-2.36,1.9a14.4,14.4,0,0,0-2.56-.26,14.32,14.32,0,0,0-2.55.26c-.84.23-2.75-.15-2.37-1.9s2.06-1.68,2.52-4a2.41,2.41,0,0,1,4.81,0C27.76,9.52,29.44,9.44,29.82,11.2ZM26.67,4.78A2.24,2.24,0,0,0,29.22,3,2.26,2.26,0,0,0,28,.06a2.24,2.24,0,0,0-2.55,1.82A2.24,2.24,0,0,0,26.67,4.78ZM31,4.31a2.24,2.24,0,0,0-2.73,1.54,2.25,2.25,0,0,0,.87,3,2.25,2.25,0,0,0,2.73-1.54A2.25,2.25,0,0,0,31,4.31Zm-7.82.47a2.24,2.24,0,0,0,1.19-2.9A2.24,2.24,0,0,0,21.77.06,2.26,2.26,0,0,0,20.58,3,2.24,2.24,0,0,0,23.13,4.78ZM20.71,8.86a2.24,2.24,0,0,0,.87-3,2.24,2.24,0,0,0-2.73-1.54,2.25,2.25,0,0,0-.87,3A2.26,2.26,0,0,0,20.71,8.86Z"/><path class="cls-1" d="M50.79,11.2c.38,1.75-1.53,2.13-2.36,1.9a12.68,12.68,0,0,0-5.11,0c-.84.23-2.75-.15-2.37-1.9s2.06-1.68,2.52-4a2.41,2.41,0,0,1,4.8,0C48.73,9.52,50.41,9.44,50.79,11.2ZM47.64,4.78A2.24,2.24,0,0,0,50.19,3,2.26,2.26,0,0,0,49,.06a2.24,2.24,0,0,0-2.55,1.82A2.24,2.24,0,0,0,47.64,4.78Zm4.28-.47a2.24,2.24,0,0,0-2.73,1.54,2.24,2.24,0,0,0,.87,3,2.26,2.26,0,0,0,2.73-1.54A2.25,2.25,0,0,0,51.92,4.31Zm-7.82.47a2.24,2.24,0,0,0,1.19-2.9A2.24,2.24,0,0,0,42.74.06,2.26,2.26,0,0,0,41.55,3,2.24,2.24,0,0,0,44.1,4.78ZM41.68,8.86a2.24,2.24,0,0,0,.87-3,2.24,2.24,0,0,0-2.73-1.54,2.25,2.25,0,0,0-.87,3A2.26,2.26,0,0,0,41.68,8.86Z"/><path class="cls-1" d="M71.76,11.2c.38,1.75-1.53,2.13-2.36,1.9a12.68,12.68,0,0,0-5.11,0c-.84.23-2.75-.15-2.37-1.9s2.06-1.68,2.52-4a2.41,2.41,0,0,1,4.8,0C69.7,9.52,71.38,9.44,71.76,11.2ZM68.6,4.78A2.23,2.23,0,0,0,71.15,3,2.24,2.24,0,0,0,70,.06a2.24,2.24,0,0,0-2.55,1.82A2.24,2.24,0,0,0,68.6,4.78Zm4.29-.47a2.24,2.24,0,0,0-2.73,1.54,2.24,2.24,0,0,0,.87,3,2.26,2.26,0,0,0,2.73-1.54A2.25,2.25,0,0,0,72.89,4.31Zm-7.82.47a2.24,2.24,0,0,0,1.19-2.9A2.24,2.24,0,0,0,63.71.06,2.26,2.26,0,0,0,62.52,3,2.24,2.24,0,0,0,65.07,4.78ZM62.65,8.86a2.24,2.24,0,0,0,.87-3,2.24,2.24,0,0,0-2.73-1.54,2.25,2.25,0,0,0-.87,3A2.26,2.26,0,0,0,62.65,8.86Z"/></svg>